<mxfile host="app.diagrams.net" modified="2023-11-07T03:18:32.691Z" agent="Mozilla/5.0 (Windows NT 10.0; Win64; x64) AppleWebKit/537.36 (KHTML, like Gecko) Chrome/118.0.0.0 Safari/537.36" etag="FVQLBJ1kpTGCGkMQOfub" version="22.0.8" type="github">
  <diagram name="第 1 页" id="mim3uR6Dv9S2fVpIXE8e">
    <mxGraphModel dx="1510" dy="815" grid="1" gridSize="10" guides="1" tooltips="1" connect="1" arrows="1" fold="1" page="1" pageScale="1" pageWidth="827" pageHeight="1169" math="0" shadow="0">
      <root>
        <mxCell id="0" />
        <mxCell id="1" parent="0" />
        <mxCell id="VH-xI48MubdvWNCz3wzI-12" value="" style="group" vertex="1" connectable="0" parent="1">
          <mxGeometry x="280" y="549" width="60" height="20" as="geometry" />
        </mxCell>
        <mxCell id="VH-xI48MubdvWNCz3wzI-9" value="" style="rounded=0;whiteSpace=wrap;html=1;" vertex="1" parent="VH-xI48MubdvWNCz3wzI-12">
          <mxGeometry width="20" height="20" as="geometry" />
        </mxCell>
        <mxCell id="VH-xI48MubdvWNCz3wzI-10" value="" style="rounded=0;whiteSpace=wrap;html=1;" vertex="1" parent="VH-xI48MubdvWNCz3wzI-12">
          <mxGeometry x="20" width="20" height="20" as="geometry" />
        </mxCell>
        <mxCell id="VH-xI48MubdvWNCz3wzI-11" value="" style="rounded=0;whiteSpace=wrap;html=1;" vertex="1" parent="VH-xI48MubdvWNCz3wzI-12">
          <mxGeometry x="40" width="20" height="20" as="geometry" />
        </mxCell>
        <mxCell id="VH-xI48MubdvWNCz3wzI-1" value="" style="rounded=0;whiteSpace=wrap;html=1;" vertex="1" parent="1">
          <mxGeometry x="230" y="290" width="300" height="240" as="geometry" />
        </mxCell>
        <mxCell id="VH-xI48MubdvWNCz3wzI-15" value="" style="group" vertex="1" connectable="0" parent="1">
          <mxGeometry x="350" y="549" width="60" height="20" as="geometry" />
        </mxCell>
        <mxCell id="VH-xI48MubdvWNCz3wzI-16" value="" style="rounded=0;whiteSpace=wrap;html=1;" vertex="1" parent="VH-xI48MubdvWNCz3wzI-15">
          <mxGeometry width="20" height="20" as="geometry" />
        </mxCell>
        <mxCell id="VH-xI48MubdvWNCz3wzI-17" value="" style="rounded=0;whiteSpace=wrap;html=1;" vertex="1" parent="VH-xI48MubdvWNCz3wzI-15">
          <mxGeometry x="20" width="20" height="20" as="geometry" />
        </mxCell>
        <mxCell id="VH-xI48MubdvWNCz3wzI-18" value="" style="rounded=0;whiteSpace=wrap;html=1;" vertex="1" parent="VH-xI48MubdvWNCz3wzI-15">
          <mxGeometry x="40" width="20" height="20" as="geometry" />
        </mxCell>
        <mxCell id="VH-xI48MubdvWNCz3wzI-20" value="" style="group" vertex="1" connectable="0" parent="1">
          <mxGeometry x="420" y="549" width="60" height="20" as="geometry" />
        </mxCell>
        <mxCell id="VH-xI48MubdvWNCz3wzI-21" value="" style="rounded=0;whiteSpace=wrap;html=1;" vertex="1" parent="VH-xI48MubdvWNCz3wzI-20">
          <mxGeometry width="20" height="20" as="geometry" />
        </mxCell>
        <mxCell id="VH-xI48MubdvWNCz3wzI-22" value="" style="rounded=0;whiteSpace=wrap;html=1;" vertex="1" parent="VH-xI48MubdvWNCz3wzI-20">
          <mxGeometry x="20" width="20" height="20" as="geometry" />
        </mxCell>
        <mxCell id="VH-xI48MubdvWNCz3wzI-23" value="" style="rounded=0;whiteSpace=wrap;html=1;" vertex="1" parent="VH-xI48MubdvWNCz3wzI-20">
          <mxGeometry x="40" width="20" height="20" as="geometry" />
        </mxCell>
        <mxCell id="VH-xI48MubdvWNCz3wzI-28" value="&lt;div style=&quot;background-color:#1e1f22;color:#bcbec4&quot;&gt;&lt;pre style=&quot;font-family:&#39;Fira Code&#39;,monospace;font-size:12.0pt;&quot;&gt;&lt;span style=&quot;color:#6aab73;&quot;&gt;Reopen Block (.*)&lt;/span&gt;&lt;/pre&gt;&lt;/div&gt;" style="text;whiteSpace=wrap;html=1;" vertex="1" parent="1">
          <mxGeometry x="320" y="760" width="170" height="70" as="geometry" />
        </mxCell>
        <mxCell id="VH-xI48MubdvWNCz3wzI-29" value="Reopen" style="text;html=1;strokeColor=none;fillColor=none;align=center;verticalAlign=middle;whiteSpace=wrap;rounded=0;fontFamily=Times New Roman;" vertex="1" parent="1">
          <mxGeometry x="280" y="569" width="60" height="30" as="geometry" />
        </mxCell>
        <mxCell id="VH-xI48MubdvWNCz3wzI-30" value="Block" style="text;html=1;strokeColor=none;fillColor=none;align=center;verticalAlign=middle;whiteSpace=wrap;rounded=0;fontFamily=Times New Roman;" vertex="1" parent="1">
          <mxGeometry x="350" y="569" width="60" height="30" as="geometry" />
        </mxCell>
        <mxCell id="VH-xI48MubdvWNCz3wzI-31" value="(.*)" style="text;html=1;strokeColor=none;fillColor=none;align=center;verticalAlign=middle;whiteSpace=wrap;rounded=0;fontFamily=Times New Roman;" vertex="1" parent="1">
          <mxGeometry x="420" y="569" width="60" height="30" as="geometry" />
        </mxCell>
        <mxCell id="VH-xI48MubdvWNCz3wzI-33" value="" style="endArrow=classic;html=1;rounded=0;" edge="1" parent="1">
          <mxGeometry width="50" height="50" relative="1" as="geometry">
            <mxPoint x="309.5" y="549" as="sourcePoint" />
            <mxPoint x="309.5" y="250" as="targetPoint" />
          </mxGeometry>
        </mxCell>
        <mxCell id="VH-xI48MubdvWNCz3wzI-37" value="" style="endArrow=classic;html=1;rounded=0;" edge="1" parent="1">
          <mxGeometry width="50" height="50" relative="1" as="geometry">
            <mxPoint x="379.5" y="549" as="sourcePoint" />
            <mxPoint x="379.5" y="250" as="targetPoint" />
          </mxGeometry>
        </mxCell>
        <mxCell id="VH-xI48MubdvWNCz3wzI-38" value="" style="endArrow=classic;html=1;rounded=0;" edge="1" parent="1">
          <mxGeometry width="50" height="50" relative="1" as="geometry">
            <mxPoint x="449.5" y="549" as="sourcePoint" />
            <mxPoint x="449.5" y="250" as="targetPoint" />
          </mxGeometry>
        </mxCell>
        <mxCell id="VH-xI48MubdvWNCz3wzI-35" value="Layer 4" style="rounded=0;whiteSpace=wrap;html=1;fontFamily=Times New Roman;" vertex="1" parent="1">
          <mxGeometry x="275" y="376" width="210" height="30" as="geometry" />
        </mxCell>
        <mxCell id="VH-xI48MubdvWNCz3wzI-36" value="Layer 5" style="rounded=0;whiteSpace=wrap;html=1;fontFamily=Times New Roman;" vertex="1" parent="1">
          <mxGeometry x="275" y="338" width="210" height="30" as="geometry" />
        </mxCell>
        <mxCell id="VH-xI48MubdvWNCz3wzI-3" value="Layer 2" style="rounded=0;whiteSpace=wrap;html=1;fontFamily=Times New Roman;" vertex="1" parent="1">
          <mxGeometry x="275" y="452" width="210" height="30" as="geometry" />
        </mxCell>
        <mxCell id="VH-xI48MubdvWNCz3wzI-2" value="Layer 1" style="rounded=0;whiteSpace=wrap;html=1;fontFamily=Times New Roman;" vertex="1" parent="1">
          <mxGeometry x="275" y="490" width="210" height="30" as="geometry" />
        </mxCell>
        <mxCell id="VH-xI48MubdvWNCz3wzI-34" value="Layer 3" style="rounded=0;whiteSpace=wrap;html=1;fontFamily=Times New Roman;" vertex="1" parent="1">
          <mxGeometry x="275" y="414" width="210" height="30" as="geometry" />
        </mxCell>
        <mxCell id="VH-xI48MubdvWNCz3wzI-4" value="Layer 6" style="rounded=0;whiteSpace=wrap;html=1;fontFamily=Times New Roman;" vertex="1" parent="1">
          <mxGeometry x="275" y="300" width="210" height="30" as="geometry" />
        </mxCell>
        <mxCell id="VH-xI48MubdvWNCz3wzI-43" value="" style="group" vertex="1" connectable="0" parent="1">
          <mxGeometry x="280" y="230" width="80" height="20" as="geometry" />
        </mxCell>
        <mxCell id="VH-xI48MubdvWNCz3wzI-39" value="" style="rounded=0;whiteSpace=wrap;html=1;" vertex="1" parent="VH-xI48MubdvWNCz3wzI-43">
          <mxGeometry width="20" height="20" as="geometry" />
        </mxCell>
        <mxCell id="VH-xI48MubdvWNCz3wzI-40" value="" style="rounded=0;whiteSpace=wrap;html=1;" vertex="1" parent="VH-xI48MubdvWNCz3wzI-43">
          <mxGeometry x="20" width="20" height="20" as="geometry" />
        </mxCell>
        <mxCell id="VH-xI48MubdvWNCz3wzI-41" value="" style="rounded=0;whiteSpace=wrap;html=1;" vertex="1" parent="VH-xI48MubdvWNCz3wzI-43">
          <mxGeometry x="40" width="20" height="20" as="geometry" />
        </mxCell>
        <mxCell id="VH-xI48MubdvWNCz3wzI-44" value="" style="group" vertex="1" connectable="0" parent="1">
          <mxGeometry x="350" y="230" width="80" height="20" as="geometry" />
        </mxCell>
        <mxCell id="VH-xI48MubdvWNCz3wzI-45" value="" style="rounded=0;whiteSpace=wrap;html=1;" vertex="1" parent="VH-xI48MubdvWNCz3wzI-44">
          <mxGeometry width="20" height="20" as="geometry" />
        </mxCell>
        <mxCell id="VH-xI48MubdvWNCz3wzI-46" value="" style="rounded=0;whiteSpace=wrap;html=1;" vertex="1" parent="VH-xI48MubdvWNCz3wzI-44">
          <mxGeometry x="20" width="20" height="20" as="geometry" />
        </mxCell>
        <mxCell id="VH-xI48MubdvWNCz3wzI-47" value="" style="rounded=0;whiteSpace=wrap;html=1;" vertex="1" parent="VH-xI48MubdvWNCz3wzI-44">
          <mxGeometry x="40" width="20" height="20" as="geometry" />
        </mxCell>
        <mxCell id="VH-xI48MubdvWNCz3wzI-49" value="" style="group" vertex="1" connectable="0" parent="1">
          <mxGeometry x="420" y="230" width="80" height="20" as="geometry" />
        </mxCell>
        <mxCell id="VH-xI48MubdvWNCz3wzI-50" value="" style="rounded=0;whiteSpace=wrap;html=1;" vertex="1" parent="VH-xI48MubdvWNCz3wzI-49">
          <mxGeometry width="20" height="20" as="geometry" />
        </mxCell>
        <mxCell id="VH-xI48MubdvWNCz3wzI-51" value="" style="rounded=0;whiteSpace=wrap;html=1;" vertex="1" parent="VH-xI48MubdvWNCz3wzI-49">
          <mxGeometry x="20" width="20" height="20" as="geometry" />
        </mxCell>
        <mxCell id="VH-xI48MubdvWNCz3wzI-52" value="" style="rounded=0;whiteSpace=wrap;html=1;" vertex="1" parent="VH-xI48MubdvWNCz3wzI-49">
          <mxGeometry x="40" width="20" height="20" as="geometry" />
        </mxCell>
        <mxCell id="VH-xI48MubdvWNCz3wzI-53" value="Context-aware Embedding" style="text;html=1;strokeColor=none;fillColor=none;align=center;verticalAlign=middle;whiteSpace=wrap;rounded=0;fontFamily=Times New Roman;" vertex="1" parent="1">
          <mxGeometry x="485" y="225" width="85" height="30" as="geometry" />
        </mxCell>
        <mxCell id="VH-xI48MubdvWNCz3wzI-55" value="" style="group" vertex="1" connectable="0" parent="1">
          <mxGeometry x="320" y="160" width="80" height="20" as="geometry" />
        </mxCell>
        <mxCell id="VH-xI48MubdvWNCz3wzI-56" value="" style="rounded=0;whiteSpace=wrap;html=1;" vertex="1" parent="VH-xI48MubdvWNCz3wzI-55">
          <mxGeometry width="20" height="20" as="geometry" />
        </mxCell>
        <mxCell id="VH-xI48MubdvWNCz3wzI-57" value="" style="rounded=0;whiteSpace=wrap;html=1;" vertex="1" parent="VH-xI48MubdvWNCz3wzI-55">
          <mxGeometry x="20" width="20" height="20" as="geometry" />
        </mxCell>
        <mxCell id="VH-xI48MubdvWNCz3wzI-58" value="" style="rounded=0;whiteSpace=wrap;html=1;" vertex="1" parent="VH-xI48MubdvWNCz3wzI-55">
          <mxGeometry x="40" width="20" height="20" as="geometry" />
        </mxCell>
        <mxCell id="VH-xI48MubdvWNCz3wzI-59" value="" style="group" vertex="1" connectable="0" parent="1">
          <mxGeometry x="380" y="160" width="80" height="20" as="geometry" />
        </mxCell>
        <mxCell id="VH-xI48MubdvWNCz3wzI-60" value="" style="rounded=0;whiteSpace=wrap;html=1;" vertex="1" parent="VH-xI48MubdvWNCz3wzI-59">
          <mxGeometry width="20" height="20" as="geometry" />
        </mxCell>
        <mxCell id="VH-xI48MubdvWNCz3wzI-61" value="" style="rounded=0;whiteSpace=wrap;html=1;" vertex="1" parent="VH-xI48MubdvWNCz3wzI-59">
          <mxGeometry x="20" width="20" height="20" as="geometry" />
        </mxCell>
        <mxCell id="VH-xI48MubdvWNCz3wzI-62" value="" style="rounded=0;whiteSpace=wrap;html=1;" vertex="1" parent="VH-xI48MubdvWNCz3wzI-59">
          <mxGeometry x="40" width="20" height="20" as="geometry" />
        </mxCell>
        <mxCell id="VH-xI48MubdvWNCz3wzI-63" style="rounded=0;orthogonalLoop=1;jettySize=auto;html=1;exitX=0.5;exitY=0;exitDx=0;exitDy=0;entryX=0.5;entryY=1;entryDx=0;entryDy=0;" edge="1" parent="1" source="VH-xI48MubdvWNCz3wzI-40" target="VH-xI48MubdvWNCz3wzI-58">
          <mxGeometry relative="1" as="geometry" />
        </mxCell>
        <mxCell id="VH-xI48MubdvWNCz3wzI-64" style="edgeStyle=orthogonalEdgeStyle;rounded=0;orthogonalLoop=1;jettySize=auto;html=1;exitX=0.5;exitY=0;exitDx=0;exitDy=0;entryX=0;entryY=1;entryDx=0;entryDy=0;" edge="1" parent="1" source="VH-xI48MubdvWNCz3wzI-46" target="VH-xI48MubdvWNCz3wzI-60">
          <mxGeometry relative="1" as="geometry" />
        </mxCell>
        <mxCell id="VH-xI48MubdvWNCz3wzI-65" style="rounded=0;orthogonalLoop=1;jettySize=auto;html=1;exitX=0.5;exitY=0;exitDx=0;exitDy=0;" edge="1" parent="1" source="VH-xI48MubdvWNCz3wzI-51">
          <mxGeometry relative="1" as="geometry">
            <mxPoint x="390" y="180" as="targetPoint" />
          </mxGeometry>
        </mxCell>
        <mxCell id="VH-xI48MubdvWNCz3wzI-66" value="512-dim Embedding" style="text;html=1;strokeColor=none;fillColor=none;align=center;verticalAlign=middle;whiteSpace=wrap;rounded=0;fontFamily=Times New Roman;" vertex="1" parent="1">
          <mxGeometry x="325" y="130" width="110" height="30" as="geometry" />
        </mxCell>
        <mxCell id="VH-xI48MubdvWNCz3wzI-67" value="Element-wise Sum and Length Normalization&amp;nbsp;" style="text;html=1;strokeColor=none;fillColor=none;align=center;verticalAlign=middle;whiteSpace=wrap;rounded=0;fontFamily=Times New Roman;" vertex="1" parent="1">
          <mxGeometry x="190" y="190" width="130" height="30" as="geometry" />
        </mxCell>
      </root>
    </mxGraphModel>
  </diagram>
</mxfile>
